
        <svg xmlns="http://www.w3.org/2000/svg" xmlns:xlink="http://www.w3.org/1999/xlink" version="1.1" width="1203.139681422338" height="3115.606936416185" viewBox="0 0 1203.139681422338 3115.606936416185">
			
			<g transform="scale(5.780346820809249) translate(10, 10)">
				<defs id="SvgjsDefs1223"/><g id="SvgjsG1224" featureKey="rootContainer" transform="matrix(1,0,0,1,0,0)" fill="#000"><path xmlns="http://www.w3.org/2000/svg" fill-rule="evenodd" d="M5,65 L94,0 L183, 65 L94, 10 z M5,439 L94,519 L183,434 L94, 509 z"/></g><g id="SvgjsG1225" featureKey="symbolFeature-0" transform="matrix(0.9554491505762388,0,0,0.9554491505762388,50.71003672175325,79.86268575160085)" fill="#000"><title xmlns="http://www.w3.org/2000/svg">People</title><path xmlns="http://www.w3.org/2000/svg" d="M55,34.68c1.52.09,2.8-1.64,2.86-3.86s-1.1-4.1-2.62-4.19-2.79,1.64-2.86,3.86S53.48,34.59,55,34.68Z"/><path xmlns="http://www.w3.org/2000/svg" d="M53.18,86.66c.45,0,.9,0,1.36-.08l0-.5c-.49,0-1,.06-1.46.08C53.08,86.33,53.13,86.49,53.18,86.66Z"/><path xmlns="http://www.w3.org/2000/svg" d="M50.46,20.77c-1.93,1.16-7.06,2.58-7.06,4.84V26c0,3.73,8.08,13.15,8.08,18.29,0,6.91-4.79,9.29-2.56,22.54.47,3.51,1.16,7.11,1.9,10.46,1.06.12,2.13.2,3.21.22V75c0-7.2,14.88-6.47,14.88-13.18C68.91,57,58.35,52.92,59,46l.54-5.09c1.81-2.71,7.23-11.85,7.23-15.74h0c0-2.92-10.18-3.72-11-10.35l-.45-.1C53.85,15.61,54,18.66,50.46,20.77ZM63.3,62.33c-4.06,1.37-6.75,4.74-10.07,6.81A35.77,35.77,0,0,1,55,57C57.73,58.76,61.77,59.89,63.3,62.33Zm.08-35.86c0,2.13-5,9.35-6.8,9.35H55.3c-3.12,0-3.69-1.09-4.81-3.26-.54-1-3.27-4.82-3.27-5.24,0-4.18,6.15-4.27,7.75-9.17C55.89,20.9,63.38,25,63.38,26.47Z"/><path xmlns="http://www.w3.org/2000/svg" d="M54,89.46l.15.47.64-.15,0-.5Z"/><path xmlns="http://www.w3.org/2000/svg" d="M33.7,48.57c1.06.06,1.95-1.15,2-2.7s-.77-2.87-1.83-2.94-2,1.15-2,2.7S32.64,48.5,33.7,48.57Z"/><path xmlns="http://www.w3.org/2000/svg" d="M33.11,81.28c-.63-.36-1.26-.74-1.87-1.14.06.24.11.47.17.7.58.37,1.16.71,1.75,1Z"/><path xmlns="http://www.w3.org/2000/svg" d="M32.55,69.28a27.05,27.05,0,0,1,1.11-5.41c2,1.25,4.77,2,5.84,3.75a16.22,16.22,0,0,0-5,3.24c.71.53,1.45,1,2.21,1.5,3-1.38,6.7-2.33,6.7-5.14,0-3.37-7.39-6.19-6.92-11l.38-3.56c1.26-1.89,5.06-8.3,5.06-11h0c0-2.07-7.34-2.61-7.74-7.44-1.35.36-1,2.74-3.69,4.35-1.35.82-4.95,1.81-4.95,3.39v.3c0,2.61,5.66,9.2,5.66,12.8,0,3.8-2.06,5.66-2.19,10.78A36,36,0,0,0,32.55,69.28Zm-2-22.5c-.38-.72-2.29-3.37-2.29-3.67,0-2.92,4.3-3,5.43-6.41.64,1.93,5.89,4.79,5.89,5.82,0,1.49-3.51,6.55-4.77,6.55h-.89C31.72,49.07,31.32,48.3,30.54,46.78Z"/><path xmlns="http://www.w3.org/2000/svg" d="M33.67,88.49l0-.3-.15,0C33.61,88.41,33.67,88.54,33.67,88.49Z"/><path xmlns="http://www.w3.org/2000/svg" d="M46.09,10.61A41.59,41.59,0,1,0,87.67,52.19,41.63,41.63,0,0,0,46.09,10.61Zm8.7,79.17L55,92.14a8.46,8.46,0,0,1-.82-2.21,38.59,38.59,0,1,1-8.06-76.32,38.5,38.5,0,0,1,9.23,1.13,1.38,1.38,0,0,1,.41-.18,2.36,2.36,0,0,0,0,.28,38.59,38.59,0,0,1-1,74.94Z"/><path xmlns="http://www.w3.org/2000/svg" d="M54.54,86.58l.21,2.7a37.89,37.89,0,0,0,14.54-6.9A37.77,37.77,0,0,1,54.54,86.58Zm.32.28A38,38,0,0,0,66.32,84.1,37.21,37.21,0,0,1,55,88.91Z"/><path xmlns="http://www.w3.org/2000/svg" d="M31.41,80.84a38,38,0,0,1-2.92-62.41,38.08,38.08,0,0,0,5,69.71C33.15,87.18,32.29,84.39,31.41,80.84ZM8.31,52.19A37.67,37.67,0,0,1,25.65,20.43,38.33,38.33,0,0,0,31.15,81c.74,3,1.45,5.37,1.86,6.61A37.86,37.86,0,0,1,8.31,52.19Z"/><path xmlns="http://www.w3.org/2000/svg" d="M53.18,86.66c-.51,0-1,0-1.51,0a37.9,37.9,0,0,1-18.51-4.81l.49,6.3A38.26,38.26,0,0,0,54,89.46C53.76,88.66,53.48,87.72,53.18,86.66ZM46.09,90a37.75,37.75,0,0,1-12.15-2l-.44-5.55A38.4,38.4,0,0,0,51.67,87q.6,0,1.2,0H53c.24.84.47,1.59.67,2.26A38,38,0,0,1,46.09,90Z"/><path xmlns="http://www.w3.org/2000/svg" d="M34,16.12l.08-.05c-.91.3-1.79.63-2.67,1l-2.62,1.76a37.54,37.54,0,0,0,2.45,61.31c-.69-2.87-1.37-6.16-1.8-9.34a26.79,26.79,0,0,1-.4-5,34.22,34.22,0,0,1,5-49.68ZM20.29,43.29a34.55,34.55,0,0,0,8.45,22.62,26.79,26.79,0,0,0,.41,4.94c.35,2.6.89,5.5,1.62,8.62A37.24,37.24,0,0,1,29,19.07l2.61-1.75.91-.36A34.32,34.32,0,0,0,20.29,43.29Z"/><path xmlns="http://www.w3.org/2000/svg" d="M32.46,72.39a22.37,22.37,0,0,0,2.06-1.53c-.68-.5-1.34-1-2-1.58A20.42,20.42,0,0,0,32.46,72.39Z"/><path xmlns="http://www.w3.org/2000/svg" d="M50.82,77.33a34.06,34.06,0,0,1-14.09-5c-2,.93-3.71,2.06-3.71,4.09V80l.09,1.26A37.29,37.29,0,0,0,51.67,86.2c.46,0,.91,0,1.37,0C52.34,83.69,51.56,80.64,50.82,77.33ZM33.4,81.1,33.32,80V76.45c0-1.87,1.61-2.91,3.39-3.75a34.1,34.1,0,0,0,13.86,4.9c.76,3.38,1.53,6.31,2.07,8.28l-1,0A37.26,37.26,0,0,1,33.4,81.1Z"/><path xmlns="http://www.w3.org/2000/svg" d="M70.73,73.69a34.18,34.18,0,0,1-15.86,3.88l-.84,0v2.5l.47,6a37.41,37.41,0,0,0,14.56-4.14l2.2-1.19A38.15,38.15,0,0,0,82.39,63.68,34.62,34.62,0,0,1,70.73,73.69Zm.33,6.84-2.14,1.15a37.4,37.4,0,0,1-14.15,4.08L54.33,80V77.86h.54a34.73,34.73,0,0,0,16-3.91,35.15,35.15,0,0,0,10.66-8.69A37.92,37.92,0,0,1,71.06,80.53Z"/></g><g id="SvgjsG1226" featureKey="nameFeature-0" transform="matrix(7.25861026917349,0,0,7.25861026917349,-8.710330938538151,101.89668369226831)" fill="#000"><path d="M1.2 40 l0 -4.48 l0.84 -0.56 l0 -17.92 l-0.84 -0.56 l0 -4.48 l6.72 0 l0 4.48 l-0.84 0.56 l0 17.92 l0.84 0.56 l0 4.48 l-6.72 0 z M15.360000000000001 40 l0 -4.48 l0.84 -0.56 l0 -17.92 l-0.84 0 l-0.56 0.84 l-4.48 0 l0 -5.88 l16.8 0 l0 5.88 l-4.48 0 l-0.56 -0.84 l-0.84 0 l0 17.92 l0.84 0.56 l0 4.48 l-6.72 0 z"/></g><g id="SvgjsG1227" featureKey="sloganFeature-0" transform="matrix(1.1969985885325418,0,0,1.1969985885325418,42,405.24892983281325)" fill="#000"><path d="M1.88 18.12 l2.76 0 l0 1.88 l-4.64 0 l0 -14.36 l1.88 0 l0 12.48 z M11.7945 12.46 l-2.76 0 l0 5.64 l2.78 0 l0 1.9 l-4.68 0 l0 -14.28 l4.68 0 l0 1.9 l-2.78 0 l0 2.94 l2.76 0 l0 1.9 z M19.168999999999997 20 l-0.72 -4.94 l-2.02 0 l-0.66 4.94 l-1.92 0 l2.16 -14.3 l2.58 0 l2.5 14.3 l-1.92 0 z M16.689 13.16 l1.48 0 l-0.76 -5.2 z M28.7835 20.04 l-2.04 0 l-1.1 -3.02 l-0.44 0 l0 3.02 l-1.9 0 l0 -14.32 l2.98 0 c1.32 0 2.38 1.06 2.38 2.38 l0 6.54 c0 0.86 -0.44 1.6 -1.12 2.02 z M25.2035 7.619999999999999 l0 7.5 l1.08 0 c0.26 0 0.48 -0.22 0.48 -0.48 l0 -6.54 c0 -0.26 -0.22 -0.48 -0.48 -0.48 l-1.08 0 z M35.918 16.72 l0.08 -11.08 l1.92 0 l-0.12 14.44 l-2.98 0 l-1.62 -11.18 l0 11.18 l-1.92 0 l0 -14.44 l3.1 0 z M47.807 5.68 l0 14.24 l-1.9 0 l0 -14.24 l1.9 0 z M57.221500000000006 5.68 l0 1.92 l-2.38 0 l0 12.42 l-1.92 0 l0 -12.42 l-2.62 0 l0 -1.92 l6.92 0 z M70.53050000000002 20 l-0.72 -4.94 l-2.02 0 l-0.66 4.94 l-1.92 0 l2.16 -14.3 l2.58 0 l2.5 14.3 l-1.92 0 z M68.05050000000001 13.16 l1.48 0 l-0.76 -5.2 z M76.825 18.12 l2.76 0 l0 1.88 l-4.64 0 l0 -14.36 l1.88 0 l0 12.48 z M83.9595 18.12 l2.76 0 l0 1.88 l-4.64 0 l0 -14.36 l1.88 0 l0 12.48 z"/></g>
			</g>
		</svg>
	