
        <svg xmlns="http://www.w3.org/2000/svg" xmlns:xlink="http://www.w3.org/1999/xlink" version="1.1" width="3168.5393258426966" height="1057.4985255986148" viewBox="0 0 3168.5393258426966 1057.4985255986148">
			
			<g transform="scale(8.426966292134832) translate(10, 10)">
				<defs id="SvgjsDefs5105"/><g id="SvgjsG5106" featureKey="symbolFeature-0" transform="matrix(1.1092511505332483,0,0,1.1092511505332483,-166.3044652030338,-387.6832432597116)" fill="#fff"><path xmlns="http://www.w3.org/2000/svg" d="M238.6,383.4c-2.1-2.1-5.5-2.1-7.6,0c-1,1-1.6,2.4-1.6,3.8c0,0.9,0.2,1.8,0.7,2.6l-6,6c-0.2-4.5-1.4-8.8-3.4-12.5l11.1-11.2  c0.6-0.6,0.6-1.5,0-2.1s-1.5-0.6-2.1,0l-10.6,10.7c-2.1-3.2-4.8-5.9-7.9-8l13.1-13.1c0.8,0.5,1.7,0.7,2.6,0.7c1.4,0,2.7-0.5,3.8-1.6  c2.1-2.1,2.1-5.5,0-7.6c-1-1-2.4-1.6-3.8-1.6s-2.8,0.6-3.8,1.6c-1.7,1.7-2,4.4-0.9,6.4l-13.6,13.6c-3.7-2-8-3.2-12.5-3.4l12.6-12.7  c0.6-0.6,0.6-1.5,0-2.1c-0.6-0.6-1.5-0.6-2.1,0L192,367.9c-13.7,1.4-24.6,12.4-26,26.1l-8.1,8.2c-2-1.1-4.7-0.9-6.4,0.9  c-2.1,2.1-2.1,5.5,0,7.6c1,1,2.4,1.6,3.8,1.6c1.4,0,2.7-0.5,3.8-1.6c1.7-1.7,2-4.4,0.9-6.4l6-6c0.2,4.5,1.4,8.8,3.4,12.5L158.2,422  c-0.6,0.6-0.6,1.5,0,2.1c0.3,0.3,0.6,0.4,1,0.4c0.4,0,0.7-0.1,1-0.4l10.6-10.7c2.1,3.2,4.8,5.9,7.9,8l-13.1,13.1  c-2-1.1-4.7-0.9-6.4,0.9c-2.1,2.1-2.1,5.5,0,7.6c1,1,2.4,1.6,3.8,1.6s2.8-0.6,3.8-1.6c1.7-1.7,2-4.4,0.9-6.4l13.6-13.6  c3.7,2,8,3.2,12.5,3.4L181.1,439c-0.6,0.6-0.6,1.5,0,2.1c0.3,0.3,0.6,0.4,1,0.4c0.4,0,0.7-0.1,1-0.4l14.8-14.9  c13.7-1.4,24.6-12.4,26-26.1l8.1-8.2c0.8,0.5,1.7,0.7,2.6,0.7c1.4,0,2.7-0.5,3.8-1.6C240.6,388.9,240.6,385.5,238.6,383.4z   M225.2,353.2c0.5-0.5,1.1-0.7,1.7-0.7c0.6,0,1.3,0.2,1.7,0.7l0,0c0.9,1,0.9,2.5,0,3.5c-0.9,0.9-2.5,1-3.5,0  C224.3,355.7,224.3,354.1,225.2,353.2z M164.8,440.9c-0.5,0.5-1.1,0.7-1.7,0.7s-1.3-0.2-1.7-0.7c-0.9-1-0.9-2.5,0-3.5  c0.5-0.5,1.1-0.7,1.7-0.7s1.3,0.2,1.7,0.7C165.8,438.4,165.8,439.9,164.8,440.9z M216,412.9c-2.1-1-4.4-1.9-6.7-2.6  c0.9-3.6,1.5-7.5,1.7-11.8h10.4C220.9,403.9,219,408.9,216,412.9z M168.8,398.5h10.4c0.1,4.3,0.7,8.2,1.7,11.8  c-2.4,0.7-4.7,1.6-6.7,2.6C171,408.9,169.1,403.9,168.8,398.5z M174,381.2c2.1,1,4.4,1.9,6.7,2.6c-0.9,3.6-1.5,7.5-1.7,11.8h-10.4  C169.1,390.2,171,385.2,174,381.2z M196.4,385.7c3.4-0.1,6.7-0.5,9.9-1.2c0.9,3.3,1.5,7.1,1.6,11.1h-11.5L196.4,385.7L196.4,385.7z   M196.4,382.8v-12c3.7,0.9,6.9,5,9,10.9C202.6,382.4,199.6,382.7,196.4,382.8z M193.6,370.8v12c-3.1-0.1-6.2-0.5-9-1.1  C186.6,375.8,189.9,371.7,193.6,370.8z M193.6,385.7v9.8H182c0.1-4,0.7-7.7,1.6-11.1C186.8,385.2,190.1,385.6,193.6,385.7z   M182,398.5h11.5v9.8c-3.4,0.1-6.7,0.5-9.9,1.2C182.7,406.2,182.1,402.5,182,398.5z M193.6,411.3v12c-3.7-0.9-6.9-5-9-10.9  C187.4,411.7,190.4,411.3,193.6,411.3z M196.4,423.3v-12c3.1,0.1,6.2,0.5,9,1.1C203.4,418.2,200.1,422.4,196.4,423.3z M196.4,408.3  v-9.8H208c-0.1,4-0.7,7.7-1.6,11.1C203.2,408.9,199.9,408.4,196.4,408.3z M210.9,395.6c-0.1-4.3-0.7-8.2-1.7-11.8  c2.4-0.7,4.7-1.6,6.7-2.6c3,4.1,5,9,5.3,14.4H210.9L210.9,395.6z M214,378.9c-1.8,0.8-3.7,1.5-5.7,2.1c-1.3-3.6-3-6.7-5-8.9  C207.5,373.4,211.1,375.8,214,378.9z M186.6,372c-2,2.3-3.7,5.3-5,8.9c-2-0.6-3.9-1.3-5.7-2.1C178.9,375.8,182.5,373.4,186.6,372z   M157,408.6c-0.9,1-2.5,1-3.5,0c-0.9-0.9-0.9-2.5,0-3.5c0.5-0.5,1.1-0.7,1.7-0.7c0.6,0,1.3,0.2,1.7,0.7  C157.9,406.1,157.9,407.7,157,408.6z M176,415.2c1.8-0.8,3.7-1.5,5.7-2.1c1.3,3.6,3,6.7,5,8.9C182.5,420.7,178.9,418.3,176,415.2z   M203.4,422c2-2.3,3.7-5.3,5-8.9c2,0.6,3.9,1.3,5.7,2.1C211.1,418.3,207.5,420.7,203.4,422z M236.5,388.9c-0.9,0.9-2.5,0.9-3.5,0  c-0.5-0.5-0.7-1.1-0.7-1.7s0.2-1.3,0.7-1.7s1.1-0.7,1.7-0.7s1.3,0.2,1.7,0.7C237.5,386.4,237.5,388,236.5,388.9z"/></g><g id="SvgjsG5107" featureKey="textGroupContainer" transform="matrix(1,0,0,1,355,5)" fill="#fff"><rect xmlns="http://www.w3.org/2000/svg" y="0" height="1" width="1" opacity="0"/><rect xmlns="http://www.w3.org/2000/svg" y="0" x="-235" width="3" height="96"/></g><g id="SvgjsG5108" featureKey="vMvB0T-0" transform="matrix(1.6883335190338762,0,0,1.6883335190338762,137.89869988420014,18.83622902737784)" fill="#fff"><path d="M6.7 8.98 l0.02 1.48 l0 9.54 q-0.68 0.12 -1.62 0.12 t-1.58 -0.12 l0 -11.02 l-1.28 0.02 l-2.06 0 q-0.12 -0.58 -0.12 -1.33 t0.12 -1.33 l9.9 0 q0.16 0.52 0.16 1.26 t-0.4 1.07 t-1.28 0.33 l-0.58 0 l-1.26 -0.02 l-0.02 0 z M14.860000000000001 15.96 l-0.02 1.44 l0 0.02 q0.92 -0.04 1.48 -0.04 l4.64 0 q0 0.74 -0.06 1.14 q-0.24 1.54 -2.04 1.54 l-5.32 0 q-0.86 0 -1.35 -0.5 t-0.49 -1.36 l0 -11.72 l0.14 -0.14 l8.62 0 q0.12 0.58 0.12 1.26 t-0.28 1.42 l-5.46 0 l0.02 1.44 l0 1.4 q0.52 -0.02 1.36 -0.02 l3.06 0 q0.18 0.56 0.18 1.28 t-0.18 1.32 l-4.42 0 l0 1.52 z M30.120000000000005 11.78 l0 -0.24 q0 -2.96 -2.2 -2.96 q-1.26 0 -1.82 1.15 t-0.56 3.39 q0 2.22 0.7 3.3 t2.04 1.08 q0.7 0 1.55 -0.33 t1.85 -1.05 q0.5 0.34 0.93 0.93 t0.53 1.13 q-0.46 0.44 -1.07 0.83 t-1.32 0.67 t-1.48 0.45 t-1.55 0.17 q-1.54 0 -2.6 -0.59 t-1.71 -1.57 t-0.94 -2.26 t-0.29 -2.66 q0 -1.8 0.45 -3.15 t1.22 -2.25 t1.81 -1.35 t2.22 -0.45 q1.2 0 2.18 0.32 t1.67 0.88 t1.06 1.32 t0.37 1.64 q0 1.78 -1.82 1.78 q-0.54 0 -1.22 -0.18 z M42.66 11.64 l-0.02 -1.48 l0 -3.82 q0.62 -0.12 1.61 -0.12 t1.59 0.12 l0 13.66 q-0.64 0.12 -1.6 0.12 t-1.6 -0.12 l0 -4.24 l0.02 -1.48 l-1 0.02 l-2.32 0 l-1 -0.02 l0.02 1.48 l0 4.24 q-0.62 0.12 -1.6 0.12 t-1.6 -0.12 l0 -13.66 q0.62 -0.12 1.6 -0.12 t1.6 0.12 l0 3.82 l-0.02 1.48 l1 -0.02 l2.32 0 z M47.66 18.82 q0.06 -0.66 0.41 -1.32 t0.83 -1.08 q2.14 1.3 4.06 1.3 q0.84 0 1.23 -0.38 t0.39 -0.94 q0 -0.94 -1.26 -1.48 l-2.36 -1 q-1.38 -0.62 -2.12 -1.49 t-0.74 -2.21 q0 -0.92 0.37 -1.68 t1.04 -1.32 t1.59 -0.87 t2.04 -0.31 q2.24 0 4.52 1.14 q-0.1 1.54 -1.08 2.4 q-2.04 -0.98 -3.6 -0.98 q-0.8 0 -1.2 0.36 t-0.4 0.82 q0 0.78 1.18 1.26 l2.4 1.02 q1.52 0.64 2.27 1.64 t0.75 2.32 q0 0.94 -0.34 1.72 t-1.01 1.35 t-1.67 0.89 t-2.34 0.32 q-2.6 0 -4.96 -1.48 z M64.8 15.719999999999999 l-1.58 0 l0 4.28 q-0.64 0.12 -1.6 0.12 q-0.98 0 -1.6 -0.12 l0 -13.56 l0.14 -0.14 q1.74 -0.04 2.89 -0.06 t1.75 -0.02 q1.1 0 2.01 0.3 t1.55 0.9 t0.99 1.49 t0.35 2.05 t-0.36 2.05 t-1 1.49 t-1.55 0.91 t-1.99 0.31 z M63.22 8.66 l0 4.66 q0.56 -0.02 0.89 -0.03 t0.43 -0.01 q0.54 0 0.9 -0.19 t0.58 -0.5 t0.32 -0.73 t0.1 -0.88 q0 -0.44 -0.1 -0.86 t-0.31 -0.74 t-0.55 -0.51 t-0.8 -0.19 l-0.82 0 t-0.64 -0.02 z M79.3 11.64 l-0.02 -1.48 l0 -3.82 q0.62 -0.12 1.61 -0.12 t1.59 0.12 l0 13.66 q-0.64 0.12 -1.6 0.12 t-1.6 -0.12 l0 -4.24 l0.02 -1.48 l-1 0.02 l-2.32 0 l-1 -0.02 l0.02 1.48 l0 4.24 q-0.62 0.12 -1.6 0.12 t-1.6 -0.12 l0 -13.66 q0.62 -0.12 1.6 -0.12 t1.6 0.12 l0 3.82 l-0.02 1.48 l1 -0.02 l2.32 0 z M88.66 15.96 l-0.02 1.44 l0 0.02 q0.92 -0.04 1.48 -0.04 l4.64 0 q0 0.74 -0.06 1.14 q-0.24 1.54 -2.04 1.54 l-5.32 0 q-0.86 0 -1.35 -0.5 t-0.49 -1.36 l0 -11.72 l0.14 -0.14 l8.62 0 q0.12 0.58 0.12 1.26 t-0.28 1.42 l-5.46 0 l0.02 1.44 l0 1.4 q0.52 -0.02 1.36 -0.02 l3.06 0 q0.18 0.56 0.18 1.28 t-0.18 1.32 l-4.42 0 l0 1.52 z M106.78 10.56 q0 0.66 -0.2 1.25 t-0.53 1.06 t-0.78 0.82 t-0.93 0.53 q1.04 0.38 1.54 1.84 l0.6 1.7 q0.34 1 1 1.48 q-0.3 0.4 -0.9 0.67 t-1.32 0.27 t-1.12 -0.41 t-0.74 -1.43 l-0.72 -2.1 q-0.22 -0.6 -0.59 -0.92 t-1.11 -0.32 l-0.82 0 l0 5 q-0.64 0.12 -1.6 0.12 t-1.58 -0.12 l0 -13.56 l0.14 -0.14 q1.74 -0.04 2.93 -0.06 t1.87 -0.02 q1.1 0 2 0.27 t1.53 0.81 t0.98 1.36 t0.35 1.9 z M100.16000000000001 8.62 l0 3.92 q0.9 0 1.54 -0.03 t1.03 -0.24 t0.59 -0.59 t0.2 -1.1 q0 -1.94 -1.88 -1.94 l-0.83 0 t-0.65 -0.02 z M112.42 15.96 l-0.02 1.44 l0 0.02 q0.92 -0.04 1.48 -0.04 l4.64 0 q0 0.74 -0.06 1.14 q-0.24 1.54 -2.04 1.54 l-5.32 0 q-0.86 0 -1.35 -0.5 t-0.49 -1.36 l0 -11.72 l0.14 -0.14 l8.62 0 q0.12 0.58 0.12 1.26 t-0.28 1.42 l-5.46 0 l0.02 1.44 l0 1.4 q0.52 -0.02 1.36 -0.02 l3.06 0 q0.18 0.56 0.18 1.28 t-0.18 1.32 l-4.42 0 l0 1.52 z"/></g><g id="SvgjsG5109" featureKey="sloganFeature-0" transform="matrix(0.9643667259929176,0,0,0.9643667259929176,136.5341630547305,57.56097225400268)" fill="#fff"><path d="M3.46 5.640000000000001 l0 12.64 l7.28 0 l0 1.72 l-9.22 0 l0 -14.36 l1.94 0 z M26.772000000000002 18.28 l0 1.72 l-10.6 0 l0 -14.36 l10.46 0 l0 1.72 l-8.52 0 l0 4.4 l7.86 0 l0 1.72 l-7.86 0 l0 4.8 l8.66 0 z M40.664 15.82 l-5.76 0 l-1.5 4.18 l-2 0 l5.4 -14.36 l2.2 0 l5.2 14.36 l-2.12 0 z M35.504000000000005 14.1 l4.46 0 l-2.12 -6.32 l-0.04 0 z M51.49600000000001 13.84 l0 6.16 l-1.94 0 l0 -14.36 l6.64 0 c2.36 0 4.72 0.82 4.72 3.86 c0 2.12 -1.08 2.9 -2 3.44 c0.82 0.34 1.64 0.7 1.72 2.7 l0.12 2.6 c0.02 0.8 0.12 1.1 0.72 1.44 l0 0.32 l-2.38 0 c-0.28 -0.88 -0.34 -3.06 -0.34 -3.6 c0 -1.18 -0.24 -2.56 -2.56 -2.56 l-4.7 0 z M51.49600000000001 7.300000000000001 l0 4.88 l4.5 0 c1.42 0 2.92 -0.36 2.92 -2.48 c0 -2.22 -1.62 -2.4 -2.58 -2.4 l-4.84 0 z M76.608 17.240000000000002 l0 -11.6 l1.88 0 l0 14.36 l-2.18 0 l-7.3 -11.6 l-0.04 0 l0 11.6 l-1.88 0 l0 -14.36 l2.3 0 l7.18 11.6 l0.04 0 z M95.992 5.640000000000001 l0 14.36 l-1.94 0 l0 -14.36 l1.94 0 z M101.404 7.359999999999999 l0 -1.72 l11.66 0 l0 1.72 l-4.86 0 l0 12.64 l-1.94 0 l0 -12.64 l-4.86 0 z M135.108 15.82 l-5.76 0 l-1.5 4.18 l-2 0 l5.4 -14.36 l2.2 0 l5.2 14.36 l-2.12 0 z M129.948 14.1 l4.46 0 l-2.12 -6.32 l-0.04 0 z M145.70000000000002 5.640000000000001 l0 12.64 l7.28 0 l0 1.72 l-9.22 0 l0 -14.36 l1.94 0 z M160.15200000000002 5.640000000000001 l0 12.64 l7.28 0 l0 1.72 l-9.22 0 l0 -14.36 l1.94 0 z"/></g>
			</g>
		</svg>
	